<svg width="0" height="0" class="hidden">
  <symbol xmlns="http://www.w3.org/2000/svg" viewBox="0 0 20 20" id="save">
    <path d="M19.187 4.874l-3.811-3.81a1.494 1.494 0 00-.626-.376V.625H1.625a.75.75 0 00-.75.75v17.25c0 .415.335.75.75.75h17.25a.75.75 0 00.75-.75V5.934c0-.399-.157-.779-.438-1.06zM7.25 2.313h6V4.75h-6V2.312zm10.687 15.374H2.562V2.313H5.75V5.5c0 .415.335.75.75.75H14a.75.75 0 00.75-.75V2.823l3.187 3.188v11.677zM10.25 8.36a3.376 3.376 0 10.002 6.752 3.376 3.376 0 00-.002-6.752zm0 5.25a1.874 1.874 0 11-.001-3.749 1.874 1.874 0 010 3.75z"  ></path>
  </symbol>
  <symbol fill="none" xmlns="http://www.w3.org/2000/svg" viewBox="0 0 14 14" id="search">
    <path d="M13.213 12.352L9.155 8.294c.63-.814.97-1.81.97-2.857a4.66 4.66 0 00-1.373-3.314A4.653 4.653 0 005.437.75a4.66 4.66 0 00-3.314 1.373A4.65 4.65 0 00.75 5.437c0 1.252.49 2.43 1.373 3.315a4.65 4.65 0 003.314 1.373 4.65 4.65 0 002.855-.969l4.058 4.056a.129.129 0 00.181 0l.681-.68a.129.129 0 000-.18zm-5.3-4.44a3.481 3.481 0 01-2.476 1.026 3.481 3.481 0 01-2.475-1.026 3.481 3.481 0 01-1.025-2.474 3.48 3.48 0 011.025-2.475 3.481 3.481 0 012.475-1.026c.935 0 1.815.363 2.475 1.025a3.481 3.481 0 011.026 2.475c0 .935-.365 1.815-1.026 2.475z" fill="#FA8C16"></path>
  </symbol>
  <symbol xmlns="http://www.w3.org/2000/svg" viewBox="0 0 18 20" id="share">
    <path d="M14.687 13.563a2.8 2.8 0 00-1.767.625l-4.856-3.513a3.766 3.766 0 000-1.35l4.856-3.513a2.8 2.8 0 001.767.625A2.815 2.815 0 0017.5 3.626 2.815 2.815 0 0014.687.812a2.815 2.815 0 00-2.702 3.593l-4.612 3.34A3.749 3.749 0 00.625 10a3.749 3.749 0 006.748 2.255l4.612 3.34a2.815 2.815 0 002.702 3.593 2.815 2.815 0 002.813-2.813 2.815 2.815 0 00-2.813-2.813zm0-11.157a1.22 1.22 0 110 2.439 1.22 1.22 0 010-2.439zM4.375 12.062A2.066 2.066 0 012.312 10c0-1.137.926-2.063 2.063-2.063S6.437 8.864 6.437 10a2.066 2.066 0 01-2.062 2.063zm10.312 5.532a1.22 1.22 0 11.002-2.439 1.22 1.22 0 01-.002 2.439z"  ></path>
  </symbol>
  <symbol xmlns="http://www.w3.org/2000/svg" viewBox="0 0 22 22" id="comment">
    <path d="M9.75 11A1.125 1.125 0 1012 11a1.125 1.125 0 00-2.25 0zm4.688 0a1.125 1.125 0 102.25 0 1.125 1.125 0 00-2.25 0zm-9.375 0a1.125 1.125 0 102.25 0 1.125 1.125 0 00-2.25 0zM20.56 6.931a10.505 10.505 0 00-5.616-5.615A10.45 10.45 0 0010.875.5h-.047A10.476 10.476 0 00.375 11.05 10.533 10.533 0 001.5 15.733v3.563a1.078 1.078 0 001.078 1.078h3.565a10.533 10.533 0 004.685 1.125h.05c1.403 0 2.765-.272 4.047-.804a10.417 10.417 0 003.347-2.231 10.473 10.473 0 003.103-7.418 10.459 10.459 0 00-.816-4.116zm-3.542 10.266a8.673 8.673 0 01-6.143 2.522h-.04a8.75 8.75 0 01-4.057-1.02l-.197-.105h-3.3v-3.3l-.105-.197a8.75 8.75 0 01-1.02-4.057 8.665 8.665 0 012.522-6.183 8.653 8.653 0 016.16-2.576h.04c1.171 0 2.308.228 3.38.678a8.662 8.662 0 012.788 1.875 8.683 8.683 0 012.552 6.206 8.686 8.686 0 01-2.58 6.157z"  ></path>
  </symbol>
  <symbol xmlns="http://www.w3.org/2000/svg" viewBox="0 0 19 20" id="like">
    <path d="M18.138 10.51c.394-.52.612-1.158.612-1.822 0-1.052-.588-2.048-1.535-2.604a1.586 1.586 0 00-.804-.218h-5.62l.14-2.88a2.509 2.509 0 00-.691-1.861A2.498 2.498 0 008.414.342c-1.219 0-2.297.82-2.62 1.995L3.78 9.626H.75a.75.75 0 00-.75.75v8.531c0 .415.335.75.75.75h14.093c.216 0 .427-.042.621-.127a3.014 3.014 0 001.709-3.642 3.016 3.016 0 00.485-2.688c.394-.52.611-1.158.611-1.821a3.2 3.2 0 00-.13-.87zm-16.45 7.46v-6.657h1.898v6.657H1.688zm14.915-8.274l-.513.445.326.596a1.338 1.338 0 01-.298 1.648l-.513.445.325.595a1.338 1.338 0 01-.298 1.648l-.512.445.325.595a1.332 1.332 0 01-.626 1.854H5.086v-6.729L7.418 2.79a1.034 1.034 0 01.989-.757.833.833 0 01.837.872l-.225 4.65h7.368c.418.255.675.687.675 1.134 0 .387-.168.753-.459 1.008z"  ></path>
  </symbol>
  <symbol xmlns="http://www.w3.org/2000/svg" viewBox="0 0 48 13" id="Pikadu">
    <path d="M.992.727h4.383c1.125 0 2.04.349 2.742 1.046.703.693 1.055 1.602 1.055 2.727 0 1.12-.362 2.029-1.086 2.727-.719.697-1.651 1.046-2.797 1.046H3.008V12H.992V.727zm2.016 1.648v4.273h1.828c.724 0 1.286-.187 1.687-.562.401-.375.602-.904.602-1.586 0-.677-.2-1.2-.602-1.57-.395-.37-.955-.555-1.68-.555H3.009zM10.5 12V3.719h1.945V12H10.5zm1.734-9.672a1.055 1.055 0 01-.765.305 1.055 1.055 0 01-1.078-1.055c0-.297.104-.547.312-.75.209-.208.464-.312.766-.312s.557.104.765.312c.214.203.32.453.32.75 0 .292-.106.542-.32.75zm3.868 4.844l3.117-3.453h2.242L18.148 7.28 21.602 12h-2.25l-2.618-3.54-.656.665V12h-1.945V.727h1.945v6.445h.024zm9.265 3.492c.557 0 1.026-.164 1.406-.492.386-.333.579-.748.579-1.242v-.633l-1.915.117c-.468.031-.833.149-1.093.352a.949.949 0 00-.383.789c0 .338.128.61.383.812.26.198.601.297 1.023.297zm-.586 1.469c-.807 0-1.471-.232-1.992-.695-.516-.464-.773-1.066-.773-1.805 0-.735.27-1.315.812-1.742.547-.427 1.326-.672 2.336-.735l2.188-.125v-.593c0-.433-.139-.769-.415-1.008-.27-.24-.648-.36-1.132-.36-.453 0-.823.102-1.11.305-.286.203-.46.48-.523.828h-1.805c.042-.786.378-1.424 1.008-1.914.635-.495 1.471-.742 2.508-.742 1.026 0 1.846.25 2.46.75.62.5.93 1.167.93 2V12h-1.875v-1.32h-.039a2.609 2.609 0 01-1.062 1.062 3.1 3.1 0 01-1.516.39zm9.157 0c-1.047 0-1.883-.386-2.508-1.156-.62-.771-.93-1.813-.93-3.125 0-1.308.31-2.347.93-3.118.625-.77 1.46-1.156 2.508-1.156.583 0 1.098.138 1.546.414.453.276.792.649 1.016 1.117h.047V.727h1.945V12h-1.906v-1.414h-.031c-.23.474-.576.851-1.04 1.133-.458.276-.984.414-1.578.414zm.585-6.953c-.625 0-1.12.242-1.484.726-.364.48-.547 1.13-.547 1.953 0 .829.18 1.482.54 1.961.364.48.861.72 1.491.72.615 0 1.107-.243 1.477-.727.37-.485.555-1.136.555-1.954 0-.812-.185-1.46-.555-1.945a1.759 1.759 0 00-1.477-.734zm12.946-1.461V12h-1.875v-1.438h-.04c-.458 1.058-1.301 1.586-2.53 1.586-.902 0-1.618-.273-2.149-.82-.526-.552-.79-1.305-.79-2.258V3.72h1.946v4.96c0 .594.14 1.048.422 1.36.287.313.703.469 1.25.469.557 0 1-.182 1.328-.547.328-.365.492-.849.492-1.453v-4.79h1.946z"></path>
  </symbol>
  <symbol fill="none" xmlns="http://www.w3.org/2000/svg" viewBox="0 0 24 26" id="user">
    <path d="M22.829 20.863a11.688 11.688 0 00-2.52-3.735 11.737 11.737 0 00-3.733-2.519c-.013-.006-.026-.009-.038-.015A7.749 7.749 0 0012.001.563a7.749 7.749 0 00-7.75 7.75 7.744 7.744 0 003.212 6.284l-.037.016a11.63 11.63 0 00-3.735 2.518 11.738 11.738 0 00-2.519 3.735 11.615 11.615 0 00-.921 4.315.25.25 0 00.25.256h1.875a.25.25 0 00.25-.243 9.317 9.317 0 012.743-6.385 9.313 9.313 0 016.632-2.747c2.506 0 4.859.976 6.63 2.747a9.316 9.316 0 012.744 6.385.247.247 0 00.25.244H23.5a.252.252 0 00.233-.16.248.248 0 00.017-.097 11.643 11.643 0 00-.921-4.319zM12 13.688a5.34 5.34 0 01-3.8-1.575 5.34 5.34 0 01-1.574-3.8 5.34 5.34 0 011.575-3.8A5.34 5.34 0 0112 2.938a5.34 5.34 0 013.8 1.575 5.34 5.34 0 011.574 3.8 5.34 5.34 0 01-1.575 3.8 5.34 5.34 0 01-3.8 1.575z" fill="#fff"></path>
  </symbol>
</svg>